<svg width="40" height="40" viewBox="0 0 40 40" fill="none" xmlns="http://www.w3.org/2000/svg">
<path d="M9.53503 32.8481C10.1207 32.6882 10.746 32.7707 11.2702 33.077L11.8772 33.4316C14.2828 34.8346 17.0189 35.5712 19.8037 35.5655C22.9212 35.5655 25.9688 34.641 28.5609 32.909C31.153 31.177 33.1733 28.7152 34.3664 25.835C35.5594 22.9548 35.8715 19.7855 35.2633 16.7279C34.6551 13.6702 33.1539 10.8616 30.9495 8.6572C28.7451 6.45278 25.9365 4.95155 22.8788 4.34335C19.8212 3.73515 16.6519 4.0473 13.7717 5.24032C10.8915 6.43335 8.4297 8.45367 6.69769 11.0458C4.96569 13.6379 4.04123 16.6854 4.04123 19.803C4.04123 22.6323 4.78404 25.3455 6.17705 27.7315L6.53152 28.3396C6.83668 28.8632 6.91883 29.4878 6.7598 30.0725C6.30101 31.7594 7.84854 33.3083 9.53503 32.8481ZM8.00065 37.3527C4.51026 38.305 1.30722 35.1013 2.25727 31.6103C2.58668 30.3998 2.39126 29.1184 1.87048 27.9772C0.702834 25.4184 0.0959674 22.6309 0.100612 19.803C0.100612 8.92094 8.9217 0.0998535 19.8037 0.0998535C30.6858 0.0998535 39.5068 8.92094 39.5068 19.803C39.5068 30.685 30.6858 39.5061 19.8037 39.5061C16.9775 39.5106 14.1917 38.9044 11.6342 37.7381C10.4925 37.2174 9.21117 37.0224 8.00065 37.3527ZM12.6919 10.5573C12.6925 10.5579 12.6934 10.5582 12.6943 10.5582C12.9578 10.5386 13.2234 10.5386 13.4869 10.5504C13.5933 10.5583 13.6997 10.5701 13.8061 10.5819C14.1194 10.6174 14.4642 10.8085 14.5804 11.0725C15.1676 12.4044 15.739 13.7462 16.2907 15.092C16.4128 15.3914 16.3399 15.7756 16.1074 16.15C15.9475 16.4032 15.7746 16.6478 15.5892 16.883C15.5027 16.9939 15.3776 17.1409 15.2569 17.2792C15.0138 17.5575 14.6751 17.8571 14.7676 18.2149C14.7952 18.3252 14.8858 18.4848 14.9686 18.6188L15.0848 18.806C15.5892 19.6473 16.267 20.5005 17.0945 21.3043C17.331 21.5329 17.5615 21.7674 17.8098 21.9861C18.7319 22.7998 19.7761 23.4638 20.9032 23.9564L20.913 23.9603C21.0805 24.0332 21.1652 24.0726 21.4095 24.1771C21.5317 24.2283 21.6578 24.2736 21.7859 24.3071C21.9182 24.3408 22.0576 24.3345 22.1863 24.2889C22.315 24.2433 22.4273 24.1605 22.509 24.051C23.9008 22.3649 24.0584 22.2171 24.0762 22.2109C24.0769 22.2107 24.0773 22.2112 24.0773 22.2119C24.0773 22.2129 24.0786 22.2135 24.0793 22.2128C24.178 22.1212 24.295 22.0517 24.4226 22.0089C24.5511 21.9657 24.6873 21.9506 24.8221 21.9644C24.9403 21.9723 25.0605 21.994 25.1709 22.0432C26.0366 22.4394 27.3582 23.019 27.7886 23.2073C27.883 23.2486 27.9763 23.2898 28.0704 23.332L29.076 23.783C29.2691 23.8756 29.4445 24.0943 29.4504 24.3051C29.4582 24.4371 29.4701 24.6499 29.4248 25.0401C29.3617 25.5504 29.208 26.1631 29.0543 26.4843C28.9491 26.7035 28.8094 26.9044 28.6406 27.0793C28.4418 27.2881 28.2241 27.478 27.9904 27.6468C27.9095 27.7076 27.8274 27.7667 27.7441 27.8241C27.499 27.9796 27.2472 28.1242 26.9894 28.2576C26.4822 28.527 25.9219 28.6817 25.3482 28.7107C24.9837 28.7304 24.6192 28.758 24.2527 28.7383C23.4984 28.7383 22.7645 28.4816 22.048 28.2458C19.6632 27.4607 17.4578 26.1999 15.5676 24.5357C15.1223 24.1436 14.7105 23.7219 14.2888 23.3022C12.5352 21.5585 11.2112 19.6769 10.4073 17.8996C9.99585 17.0274 9.77359 16.0779 9.75514 15.1136C9.74701 13.9174 10.1381 12.7525 10.8664 11.8035C11.0102 11.6183 11.1462 11.4252 11.3806 11.2026C11.6309 10.9661 11.7885 10.84 11.9599 10.7533C12.1874 10.6393 12.4356 10.5723 12.6895 10.5564C12.6904 10.5563 12.6913 10.5567 12.6919 10.5573Z" fill="#1C1C27"/>
</svg>
